<svg xmlns="http://www.w3.org/2000/svg" xmlns:xlink="http://www.w3.org/1999/xlink" fill="none" version="1.1" width="78.99615478515625" height="71.99555206298828" viewBox="0 0 78.99615478515625 71.99555206298828"><defs><linearGradient x1="-0.13869689404964447" y1="1" x2="1.0826897621154785" y2="0.11259687691926956" id="master_svg0_18_0977"><stop offset="0%" stop-color="#F1AC63" stop-opacity="1"/><stop offset="100%" stop-color="#D76FF4" stop-opacity="1"/></linearGradient></defs><g><g><g transform="matrix(0,0.9999382495880127,-0.9999382495880127,0,78.99615478515625,-78.99127674005285)"><path d="M82.48498478515626,55.9915C80.93660478515625,58.6581,82.86055478515625,62,85.94414478515625,62L144.04815478515627,62C147.13175478515626,62,149.05565478515626,58.6581,147.50735478515625,55.9915L118.45535478515626,5.95743C116.91355478515625,3.30216,113.07875478515625,3.30216,111.53705478515624,5.95743L96.99615478515625,31L82.48498478515626,55.9915Z" fill="#68D1FA" fill-opacity="1"/></g><g transform="matrix(0,0.9999382495880127,-0.9999382495880127,0,62.99609375,-62.99220371525735)"><path d="M66.23868375,57.0787C64.77892375,59.7444,66.70789375,63,69.74707375,63L125.24509375,63C128.28429375000002,63,130.21329375,59.7444,128.75349375000002,57.0787L101.00449375,6.40662C99.48669375,3.63496,95.50549375,3.63496,93.98769375,6.40662L80.24609375,31.5L66.23868375,57.0787Z" fill="url(#master_svg0_18_0977)" fill-opacity="1"/></g><g><rect x="7.99615478515625" y="27" width="4" height="11" rx="2" fill="#FFFFFF" fill-opacity="1"/></g><g><rect x="24.99615478515625" y="27" width="4" height="11" rx="2" fill="#FFFFFF" fill-opacity="1"/></g><g><path d="M18.49615478515625,46Q23.897554785156252,46,29.27345478515625,42.416025L28.71885478515625,41.583975Q23.594754785156248,45,18.49615478515625,45Q13.39754478515625,45,8.27350478515625,41.583975L7.71880478515625,42.416025Q13.09476478515625,46,18.49615478515625,46Z" fill-rule="evenodd" fill="#FFFFFF" fill-opacity="1"/></g></g></g></svg>