<svg xmlns="http://www.w3.org/2000/svg" xmlns:xlink="http://www.w3.org/1999/xlink" fill="none" version="1.1" width="282.24072265625" height="80" viewBox="0 0 282.24072265625 80"><g><g><path d="M0.5,60L17.0417,21.1667L17.125,21.1667L33.6667,60L26.125,60L23.3333,53.3333L10.5833,53.3333L7.79167,60L0.5,60ZM13.0833,47.3333L20.8333,47.3333L19.2083,43.5Q18.5417,41.9583,17.9792,40.5208Q17.4167,39.0833,16.9167,37.1667Q16.4583,39.0417,15.9167,40.5Q15.375,41.9583,14.7083,43.5L13.0833,47.3333ZM38.4167,60L38.4167,22.5L46.1667,22.5L46.1667,60L38.4167,60Z" fill="#EDA17E" fill-opacity="1"/></g><g><path d="M76.03387451171875,61.25L60.28387451171875,22.5L68.20054451171875,22.5L74.32557451171876,37.9167Q74.82557451171876,39.2083,75.32557451171876,40.4375Q75.82557451171876,41.6667,76.28387451171875,43.1667Q76.70057451171874,41.7083,77.17967451171876,40.5208Q77.65887451171875,39.3333,78.20057451171874,37.9167L84.32557451171874,22.5L91.86717451171876,22.5L76.11717451171876,61.25L76.03387451171875,61.25ZM103.37367451171875,60.8333Q99.65887451171875,60.8333,96.58007451171875,59.0397Q93.50197451171874,57.2454,91.68427451171875,54.2129Q89.86717451171876,51.1803,89.86717451171876,47.5072Q89.86717451171876,43.7917,91.68167451171875,40.776Q93.49677451171874,37.7598,96.57097451171876,35.9635Q99.64517451171875,34.1667,103.36007451171875,34.1667Q107.11717451171876,34.1667,110.17447451171876,35.9609Q113.23247451171875,37.7546,115.04947451171876,40.7663Q116.86717451171876,43.7773,116.86717451171876,47.4935Q116.86717451171876,51.1667,115.05207451171876,54.2038Q113.23767451171875,57.2402,110.18427451171874,59.0371Q107.13157451171875,60.8333,103.37367451171875,60.8333ZM103.36657451171875,54.3333Q105.24217451171876,54.3333,106.76307451171874,53.4167Q108.28387451171875,52.5,109.17967451171876,50.9434Q110.07557451171874,49.3861,110.07557451171874,47.4844Q110.07557451171874,45.5833,109.17187451171876,44.0469Q108.26827451171874,42.5104,106.75127451171875,41.5885Q105.23507451171875,40.6667,103.36397451171875,40.6667Q101.49217451171876,40.6667,99.97787451171875,41.5885Q98.46357451171875,42.5104,97.56117451171875,44.0469Q96.65887451171875,45.5833,96.65887451171875,47.4844Q96.65887451171875,49.3861,97.55467451171876,50.9434Q98.45057451171874,52.5,99.97077451171876,53.4167Q101.49087451171874,54.3333,103.36657451171875,54.3333ZM121.20057451171874,60L121.20057451171874,35L128.45057451171874,35L128.45057451171874,60L121.20057451171874,60ZM124.81837451171874,31.375Q123.20057451171874,31.375,122.07557451171874,30.2454Q120.95057451171874,29.1152,120.95057451171874,27.5013Q120.95057451171874,25.8333,122.08007451171875,24.7292Q123.21027451171875,23.625,124.82427451171876,23.625Q126.49217451171874,23.625,127.59637451171875,24.7305Q128.70057451171874,25.8359,128.70057451171874,27.5072Q128.70057451171874,29.125,127.59507451171875,30.25Q126.48957451171874,31.375,124.81837451171874,31.375ZM146.28387451171875,60.8333Q142.57557451171874,60.8333,139.49217451171876,59.0417Q136.40887451171875,57.25,134.59637451171875,54.2083Q132.78387451171875,51.1667,132.78387451171875,47.5Q132.78387451171875,43.7917,134.59637451171875,40.7708Q136.40887451171875,37.75,139.49217451171876,35.9583Q142.57557451171874,34.1667,146.28387451171875,34.1667Q148.86717451171876,34.1667,151.17967451171876,35.0208Q153.49217451171876,35.875,155.28387451171875,37.5417L153.40887451171875,44.9167Q152.36717451171876,43.2083,150.63807451171874,41.9375Q148.90887451171875,40.6667,146.57557451171874,40.6667Q144.61717451171876,40.6667,143.07557451171874,41.5833Q141.53387451171875,42.5,140.65887451171875,44.0417Q139.78387451171875,45.5833,139.78387451171875,47.5Q139.78387451171875,49.375,140.65887451171875,50.9375Q141.53387451171875,52.5,143.07557451171874,53.4167Q144.61717451171876,54.3333,146.57557451171874,54.3333Q148.90887451171875,54.3333,150.63807451171874,53.0625Q152.36717451171876,51.7917,153.40887451171875,50.0833L155.28387451171875,57.4583Q153.49217451171876,59.125,151.17967451171876,59.9792Q148.86717451171876,60.8333,146.28387451171875,60.8333ZM171.99187451171875,60.8333Q167.78387451171875,60.8333,164.57587451171875,59.0833Q161.36687451171875,57.3333,159.57557451171874,54.2708Q157.78387451171875,51.2083,157.78387451171875,47.25Q157.78387451171875,43.4583,159.53387451171875,40.5208Q161.28387451171875,37.5833,164.26287451171873,35.875Q167.24187451171875,34.1667,170.86687451171875,34.1667Q174.57587451171875,34.1667,177.49187451171875,35.8542Q180.40887451171875,37.5417,182.09587451171876,40.4583Q183.78387451171875,43.375,183.78387451171875,47.0833L183.78387451171875,49.625L168.53387451171875,49.625Q167.49187451171875,49.625,166.53387451171875,49.5Q165.57587451171875,49.375,164.61687451171875,49.2083Q165.11687451171875,51.7083,167.09587451171876,53.2708Q169.07587451171875,54.8333,172.15887451171875,54.8333Q174.53387451171875,54.8333,176.42987451171877,53.875Q178.32587451171875,52.9167,179.53387451171875,51.5L181.11687451171875,58Q179.24187451171875,59.4167,176.88787451171873,60.125Q174.53387451171875,60.8333,171.99187451171875,60.8333ZM164.45087451171875,44.8333Q166.53387451171875,44.375,168.53387451171875,44.375L172.95087451171875,44.375Q174.11687451171875,44.375,175.15887451171875,44.4583Q176.20087451171875,44.5417,177.11687451171875,44.75Q176.49187451171875,42.5,174.84587451171876,41.2083Q173.20087451171875,39.9167,170.78387451171875,39.9167Q168.49187451171875,39.9167,166.80487451171877,41.2292Q165.11687451171875,42.5417,164.45087451171875,44.8333Z" fill="#E187BD" fill-opacity="1"/></g><g><path d="" fill="#EDA17E" fill-opacity="1"/><path d="M196.08984375,60L196.08984375,22.5L203.83984375,22.5L203.83984375,53.25L215.08984375,53.25L215.08984375,60L196.08984375,60ZM229.83984375,60.6667Q226.38154375,60.6667,223.54814375,58.875Q220.71484375,57.0833,219.02734375,54.1009Q217.33984375,51.1185,217.33984375,47.4967Q217.33984375,43.875,219.02734375,40.8802Q220.71484375,37.8848,223.54814375,36.1094Q226.38154375,34.3333,229.83984375,34.3333Q232.25654375,34.3333,234.25654375,35.1875Q236.25654375,36.0417,237.67314375,37.5417L237.67314375,35L243.92314375,35L243.92314375,60L237.67314375,60L237.67314375,57.4583Q236.25654375,58.9583,234.25654375,59.8125Q232.25654375,60.6667,229.83984375,60.6667ZM230.70834374999998,54.2917Q232.54814375,54.2917,234.05334375,53.3704Q235.55924375,52.4486,236.44924375,50.9128Q237.33984375,49.3763,237.33984375,47.5006Q237.33984375,45.625,236.45184375,44.0885Q235.56444375,42.5521,234.06314375,41.6302Q232.56184375,40.7083,230.72204375,40.7083Q228.88154375,40.7083,227.37564375,41.6302Q225.87044375,42.5514,224.97984375,44.0879Q224.08984375,45.6237,224.08984375,47.4993Q224.08984375,49.375,224.97724375,50.9115Q225.86524375,52.4479,227.36654375,53.3698Q228.86784375,54.2917,230.70834374999998,54.2917ZM263.46484375,60.6667Q261.08984375,60.6667,259.11064375,59.8333Q257.13154375,59,255.67314375,57.5417L255.67314375,60L249.42314375,60L249.42314375,20L256.67314375,20L256.67314375,36.5833Q258.04814375,35.5,259.75654375,34.9167Q261.46484375,34.3333,263.46484375,34.3333Q266.95504375,34.3333,269.79294375,36.1042Q272.63154375,37.875,274.31904375,40.8672Q276.00654375,43.8587,276.00654375,47.4922Q276.00654375,51.125,274.31904375,54.1042Q272.63154375,57.0833,269.79294375,58.875Q266.95504375,60.6667,263.46484375,60.6667ZM262.62504375000003,54.2917Q264.46484375,54.2917,265.97004375,53.3704Q267.47594375,52.4486,268.36584375,50.9128Q269.25654375,49.3763,269.25654375,47.5006Q269.25654375,45.625,268.36844375,44.0885Q267.48114375,42.5521,265.97984375,41.6302Q264.47854375,40.7083,262.63864375,40.7083Q260.79814375,40.7083,259.29234375,41.6302Q257.78714375,42.5514,256.89644375,44.0879Q256.00654375,45.6237,256.00654375,47.4993Q256.00654375,49.375,256.89384375,50.9115Q257.78194375,52.4479,259.28324375,53.3698Q260.78454375,54.2917,262.62504375000003,54.2917Z" fill="#68D1FA" fill-opacity="1"/></g></g></svg>